# xmcd
#
# Track frame offsets:
#	150
#	26579
#	95784
#	137050
#
# Disc length: 2644 seconds
#
# Revision: 0
# Processed by: cddbd v1.5.2PL0 Copyright (c) Steve Scherf et al.
# Submitted via: EZCDAudioConverter 2.1.7.1
#
DISCID=310a5204
DTITLE=John Carter and Bobby Bradford - Self Determination Music
DYEAR=1900
DGENRE=
TTITLE0=The Sunday Afternoon Jazz Blues Society
TTITLE1=The Eyes Of The Storm
TTITLE2=Loneliness
TTITLE3=Encounter
EXTD=
EXTT0=
EXTT1=
EXTT2=
EXTT3=
PLAYORDER=
